<svg width="50" height="50" viewBox="0 0 50 50" fill="none" xmlns="http://www.w3.org/2000/svg">
<path d="M37.7832 12.5019C37.7832 13.5808 36.9087 14.4553 35.8298 14.4553H21.9714C20.8925 14.4553 20.018 13.5808 20.018 12.5019C20.018 11.4229 20.8925 10.5484 21.9714 10.5484H35.8298C36.9086 10.5484 37.7832 11.4229 37.7832 12.5019ZM37.7832 20.3154C37.7832 19.2365 36.9087 18.362 35.8298 18.362H21.9714C20.8925 18.362 20.018 19.2365 20.018 20.3154C20.018 21.3943 20.8925 22.2688 21.9714 22.2688H35.8298C36.9086 22.2688 37.7832 21.3943 37.7832 20.3154ZM21.9715 26.1757C20.8926 26.1757 20.0181 27.0502 20.0181 28.1291C20.0181 29.208 20.8926 30.0825 21.9715 30.0825H27.9294C29.0083 30.0825 29.8828 29.208 29.8828 28.1291C29.8828 27.0502 29.0083 26.1757 27.9294 26.1757H21.9715ZM41.7985 24.6129V7.81367C41.7985 5.65947 40.0459 3.90684 37.8917 3.90684H19.9204C17.7662 3.90684 16.0136 5.65947 16.0136 7.81367V34.3785C16.0136 35.4224 16.4201 36.4034 17.1582 37.1413C17.8961 37.8791 18.8771 38.2854 19.9204 38.2854H19.9213L37.8927 38.281C40.0464 38.2805 41.7985 36.5278 41.7985 34.3741C41.7985 33.2952 42.673 32.4207 43.752 32.4207C44.8309 32.4207 45.7054 33.2952 45.7054 34.3741C45.7054 38.3515 42.7175 41.6448 38.8685 42.127V42.1863C38.8685 46.4947 35.3633 50 31.0548 50H12.1066C7.79824 50 4.29297 46.4948 4.29297 42.1863V15.62C4.29297 11.3116 7.79815 7.80635 12.1066 7.80635C12.1106 3.50127 15.6144 0 19.9204 0H37.8918C42.2002 0 45.7055 3.50518 45.7055 7.81367V24.613C45.7055 25.6919 44.831 26.5664 43.7521 26.5664C42.6731 26.5664 41.7985 25.6918 41.7985 24.6129ZM14.396 39.9043C12.9198 38.4285 12.1068 36.466 12.1068 34.3786V11.7132C9.95264 11.7132 8.2 13.4658 8.2 15.62V42.1863C8.2 44.3405 9.95264 46.0932 12.1068 46.0932H31.0549C33.2084 46.0932 34.9605 44.3417 34.9617 42.1885L19.9225 42.1922H19.9205C17.8335 42.1921 15.8719 41.3798 14.396 39.9043Z" fill="url(#paint0_linear_121_197)"/>
<defs>
<linearGradient id="paint0_linear_121_197" x1="4.29286" y1="25.0011" x2="45.7033" y2="25.0011" gradientUnits="userSpaceOnUse">
<stop stop-color="#00F2FE"/>
<stop offset="0.021" stop-color="#03EFFE"/>
<stop offset="0.293" stop-color="#24D2FE"/>
<stop offset="0.554" stop-color="#3CBDFE"/>
<stop offset="0.796" stop-color="#4AB0FE"/>
<stop offset="1" stop-color="#4FACFE"/>
</linearGradient>
</defs>
</svg>
