<svg width="50" height="50" viewBox="0 0 50 50" fill="none" xmlns="http://www.w3.org/2000/svg">
<g clip-path="url(#clip0_121_204)">
<path d="M44.1406 38.2812C43.1801 38.2812 42.2733 38.5151 41.4726 38.9267L37.104 34.5581C39.1853 31.9279 40.4297 28.6068 40.4297 25C40.4297 21.4485 39.2231 18.174 37.1986 15.5632L41.6161 11.1462C42.3809 11.5128 43.2373 11.7188 44.1406 11.7188C45.2194 11.7188 46.0938 10.8444 46.0938 9.76562C46.0938 8.68683 45.2194 7.8125 44.1406 7.8125C43.0637 7.8125 42.1875 6.93626 42.1875 5.85938C42.1875 4.78249 43.0637 3.90625 44.1406 3.90625C45.2175 3.90625 46.0938 4.78249 46.0938 5.85938C46.0938 6.93817 46.9681 7.8125 48.0469 7.8125C49.1257 7.8125 50 6.93817 50 5.85938C50 2.62833 47.3717 0 44.1406 0C40.9096 0 38.2812 2.62833 38.2812 5.85938C38.2812 6.7627 38.4872 7.61909 38.8538 8.38394L34.4368 12.8014C31.826 10.7773 28.5515 9.57031 25 9.57031C21.3932 9.57031 18.0717 10.8147 15.4419 12.896L11.0733 8.52737C11.4849 7.72667 11.7188 6.8203 11.7188 5.85938C11.7188 2.62833 9.09042 0 5.85938 0C2.62833 0 0 2.62833 0 5.85938C0 9.09042 2.62833 11.7188 5.85938 11.7188C6.70471 11.7188 7.50847 11.5372 8.23517 11.2137L12.7071 15.6857C10.7399 18.2762 9.57031 21.5038 9.57031 25C9.57031 28.5515 10.7769 31.826 12.8014 34.4364L8.38394 38.8538C7.61909 38.4872 6.7627 38.2812 5.85938 38.2812C2.62833 38.2812 0 40.9096 0 44.1406C0 47.3717 2.62833 50 5.85938 50C6.93817 50 7.8125 49.1257 7.8125 48.0469C7.8125 46.9681 6.93817 46.0938 5.85938 46.0938C4.78249 46.0938 3.90625 45.2175 3.90625 44.1406C3.90625 43.0637 4.78249 42.1875 5.85938 42.1875C6.93626 42.1875 7.8125 43.0637 7.8125 44.1406C7.8125 45.2194 8.68683 46.0938 9.76562 46.0938C10.8444 46.0938 11.7188 45.2194 11.7188 44.1406C11.7188 43.2373 11.5128 42.3809 11.1462 41.6161L15.5636 37.1986C18.174 39.2227 21.4485 40.4297 25 40.4297C28.4962 40.4297 31.7242 39.2601 34.3143 37.2929L38.7863 41.7648C38.4628 42.4915 38.2812 43.2953 38.2812 44.1406C38.2812 47.3717 40.9096 50 44.1406 50C45.2194 50 46.0938 49.1257 46.0938 48.0469C46.0938 46.9681 45.2194 46.0938 44.1406 46.0938C43.0637 46.0938 42.1875 45.2175 42.1875 44.1406C42.1875 43.0637 43.0637 42.1875 44.1406 42.1875C45.2175 42.1875 46.0938 43.0637 46.0938 44.1406C46.0938 45.2194 46.9681 46.0938 48.0469 46.0938C49.1257 46.0938 50 45.2194 50 44.1406C50 40.9096 47.3717 38.2812 44.1406 38.2812V38.2812ZM36.5234 25C36.5234 27.7443 35.5587 30.2673 33.9512 32.2483C33.1722 30.3272 31.7925 28.7117 30.0453 27.6363C30.9208 26.5358 31.4453 25.145 31.4453 23.6328C31.4453 20.0787 28.5542 17.1875 25 17.1875C21.4458 17.1875 18.5547 20.0787 18.5547 23.6328C18.5547 25.145 19.0792 26.5358 19.9547 27.6363C18.2075 28.7117 16.8278 30.3272 16.0488 32.2483C14.4413 30.2673 13.4766 27.7443 13.4766 25C13.4766 18.6459 18.6459 13.4766 25 13.4766C31.3541 13.4766 36.5234 18.6459 36.5234 25V25ZM25 26.1719C23.6 26.1719 22.4609 25.0328 22.4609 23.6328C22.4609 22.2328 23.6 21.0938 25 21.0938C26.4 21.0938 27.5391 22.2328 27.5391 23.6328C27.5391 25.0328 26.4 26.1719 25 26.1719ZM3.90625 5.85938C3.90625 4.78249 4.78249 3.90625 5.85938 3.90625C6.93626 3.90625 7.8125 4.78249 7.8125 5.85938C7.8125 6.93626 6.93626 7.8125 5.85938 7.8125C4.78249 7.8125 3.90625 6.93626 3.90625 5.85938ZM19.3146 35.0201C19.7239 32.2495 22.1172 30.1159 25 30.1159C27.8828 30.1159 30.2761 32.2495 30.6854 35.0201C29.0066 35.9764 27.066 36.5234 25 36.5234C22.934 36.5234 20.9934 35.9764 19.3146 35.0201V35.0201Z" fill="url(#paint0_linear_121_204)"/>
</g>
<defs>
<linearGradient id="paint0_linear_121_204" x1="0" y1="25" x2="50" y2="25" gradientUnits="userSpaceOnUse">
<stop stop-color="#00F2FE"/>
<stop offset="0.0208" stop-color="#03EFFE"/>
<stop offset="0.2931" stop-color="#24D2FE"/>
<stop offset="0.5538" stop-color="#3CBDFE"/>
<stop offset="0.7956" stop-color="#4AB0FE"/>
<stop offset="1" stop-color="#4FACFE"/>
</linearGradient>
<clipPath id="clip0_121_204">
<rect width="50" height="50" rx="10" fill="white"/>
</clipPath>
</defs>
</svg>
