<svg width="50" height="50" viewBox="0 0 50 50" fill="none" xmlns="http://www.w3.org/2000/svg">
<g clip-path="url(#clip0_121_202)">
<path d="M22.8586 46.009H5.89767C5.2675 46.009 4.69328 45.7168 4.32199 45.2075C3.9506 44.6979 3.84836 44.0614 4.04133 43.4611C5.96828 37.4703 11.8448 33.2862 18.3319 33.2862C21.3504 33.2862 24.249 34.1952 26.7146 35.9147C27.5977 36.5307 28.8127 36.3142 29.4289 35.4311C30.0447 34.5479 29.8282 33.3328 28.9451 32.7168C27.7246 31.8655 26.4207 31.1711 25.0568 30.6409C26.8715 28.9909 28.0754 26.6805 28.2846 24.0932C31.0362 21.4127 34.6431 19.9439 38.5096 19.9439C41.528 19.9439 44.4267 20.8529 46.8922 22.5725C47.7753 23.1884 48.9904 22.9719 49.6066 22.0888C50.2224 21.2057 50.0059 19.9905 49.1228 19.3745C47.9023 18.5232 46.5984 17.8288 45.2344 17.2986C47.2362 15.4785 48.4948 12.8547 48.4948 9.94238C48.4948 4.46025 44.0346 0 38.5523 0C33.0699 0 28.6096 4.46025 28.6096 9.94258C28.6096 12.8431 29.858 15.4575 31.8458 17.2768C31.5738 17.3814 31.3038 17.4928 31.0358 17.6107C29.8158 18.1476 28.6685 18.8065 27.602 19.5817C26.1305 15.9279 22.5486 13.3422 18.3744 13.3422C12.892 13.3422 8.43185 17.8024 8.43185 23.2848C8.43185 26.1768 9.67306 28.7844 11.6506 30.6029C6.36271 32.5846 2.07511 36.8402 0.329607 42.2674C-0.249299 44.0673 0.0573416 45.976 1.17101 47.504C2.28449 49.0318 4.00724 49.9081 5.89767 49.9081H22.8586C23.9354 49.9081 24.8081 49.0353 24.8081 47.9586C24.8081 46.8819 23.9353 46.009 22.8586 46.009ZM38.5524 3.89902C41.8848 3.89902 44.5959 6.61016 44.5959 9.94258C44.5959 13.275 41.8848 15.9861 38.5524 15.9861C35.2199 15.9861 32.5088 13.275 32.5088 9.94258C32.5088 6.61016 35.2199 3.89902 38.5524 3.89902ZM18.3746 17.2412C21.707 17.2412 24.4182 19.9523 24.4182 23.2848C24.4182 26.6172 21.707 29.3283 18.3746 29.3283C15.0422 29.3283 12.3311 26.6172 12.3311 23.2848C12.3311 19.9523 15.0422 17.2412 18.3746 17.2412ZM49.5929 34.5639L39.9445 48.041C39.9234 48.0704 39.9017 48.0992 39.8789 48.1274C39.0029 49.2174 37.7001 49.896 36.3048 49.989C36.1945 49.9964 36.0841 50 35.974 50C34.6932 50 33.4484 49.5061 32.5156 48.6183L26.2884 42.639C25.5118 41.8933 25.4867 40.6591 26.2325 39.8825C26.9779 39.106 28.2122 39.0807 28.989 39.8266L35.21 45.8C35.5119 46.0875 35.8642 46.1109 36.0454 46.0985C36.2217 46.0868 36.5505 46.0211 36.8129 45.7168L46.4223 32.2942C47.0489 31.4187 48.2667 31.2171 49.1423 31.8439C50.018 32.4707 50.2195 33.6885 49.5929 34.5639Z" fill="url(#paint0_linear_121_202)"/>
</g>
<defs>
<linearGradient id="paint0_linear_121_202" x1="0.0429419" y1="24.999" x2="49.9592" y2="24.999" gradientUnits="userSpaceOnUse">
<stop stop-color="#00F2FE"/>
<stop offset="0.021" stop-color="#03EFFE"/>
<stop offset="0.293" stop-color="#24D2FE"/>
<stop offset="0.554" stop-color="#3CBDFE"/>
<stop offset="0.796" stop-color="#4AB0FE"/>
<stop offset="1" stop-color="#4FACFE"/>
</linearGradient>
<clipPath id="clip0_121_202">
<rect width="50" height="50" rx="10" fill="white"/>
</clipPath>
</defs>
</svg>
