<svg width="40" height="50" viewBox="0 0 40 50" fill="none" xmlns="http://www.w3.org/2000/svg">
<path d="M31.6058 50H7.75869C3.48055 50 0 46.4953 0 42.1875V7.8125C0 3.50469 3.48055 0 7.75869 0H31.6059C35.884 0 39.3646 3.50469 39.3646 7.8125V32.4219C39.3646 33.5006 38.4962 34.375 37.4249 34.375C36.3536 34.375 35.4852 33.5006 35.4852 32.4219V7.8125C35.4852 5.65859 33.745 3.90625 31.6059 3.90625H7.75869C5.61962 3.90625 3.87934 5.65859 3.87934 7.8125V42.1875C3.87934 44.3414 5.61962 46.0938 7.75869 46.0938H31.6059C33.745 46.0938 35.4852 44.3414 35.4852 42.1875C35.4852 41.1088 36.3536 40.2344 37.4249 40.2344C38.4962 40.2344 39.3646 41.1088 39.3646 42.1875C39.3645 46.4953 35.8841 50 31.6058 50ZM31.6167 14.5508C31.6167 13.4721 30.7483 12.5977 29.677 12.5977H23.955C22.8837 12.5977 22.0153 13.4721 22.0153 14.5508C22.0153 15.6295 22.8837 16.5039 23.955 16.5039H29.677C30.7484 16.5039 31.6167 15.6295 31.6167 14.5508ZM12.9962 17.2896C13.9316 17.2269 14.8051 16.771 15.3955 16.0383L19.9222 10.5214C20.6046 9.68975 20.4882 8.45869 19.6623 7.77168C18.8365 7.08477 17.6139 7.20176 16.9316 8.0334L14.2501 11.3015C13.4464 12.2809 11.9688 12.3412 11.088 11.4305V11.4305C10.3408 10.6577 9.11268 10.6412 8.34515 11.3937C7.57772 12.1463 7.56133 13.3828 8.30868 14.1557L10.3894 16.3073C10.4065 16.3251 10.424 16.3425 10.4418 16.3596C11.0706 16.9622 11.9098 17.2974 12.773 17.2974C12.8471 17.2972 12.9218 17.2947 12.9962 17.2896ZM31.6167 26.5625C31.6167 25.4838 30.7483 24.6094 29.677 24.6094H23.955C22.8837 24.6094 22.0153 25.4838 22.0153 26.5625C22.0153 27.6412 22.8837 28.5156 23.955 28.5156H29.677C30.7484 28.5156 31.6167 27.6412 31.6167 26.5625ZM12.9962 29.2894C13.9315 29.2266 14.805 28.7707 15.3955 28.038L19.9222 22.521C20.6046 21.6894 20.4882 20.4583 19.6623 19.7713C18.8365 19.0843 17.6139 19.2015 16.9316 20.033L14.247 23.3048C13.4436 24.2839 11.9672 24.3461 11.0843 23.4382V23.4382C10.3347 22.6675 9.10666 22.6546 8.34127 23.4093C7.57587 24.164 7.56307 25.4006 8.31247 26.1713L10.3932 28.3108C10.4091 28.3271 10.4253 28.3433 10.4417 28.3591C11.0705 28.9617 11.9098 29.297 12.773 29.297C12.8472 29.2968 12.9218 29.2943 12.9962 29.2894ZM31.6167 38.3789C31.6167 37.3002 30.7483 36.4258 29.677 36.4258H23.955C22.8837 36.4258 22.0153 37.3002 22.0153 38.3789C22.0153 39.4576 22.8837 40.332 23.955 40.332H29.677C30.7484 40.332 31.6167 39.4576 31.6167 38.3789ZM12.9962 41.1058C13.9315 41.043 14.805 40.5871 15.3955 39.8544L19.9222 34.3374C20.6046 33.5058 20.4882 32.2747 19.6623 31.5877C18.8365 30.9008 17.6139 31.0179 16.9316 31.8494L14.247 35.1212C13.4436 36.1003 11.9672 36.1625 11.0843 35.2546V35.2546C10.3347 34.4839 9.10666 34.471 8.34127 35.2257C7.57587 35.9804 7.56307 37.217 8.31247 37.9877L10.3932 40.1272C10.4091 40.1436 10.4253 40.1597 10.4417 40.1755C11.0705 40.7781 11.9098 41.1134 12.773 41.1134C12.8472 41.1132 12.9218 41.1107 12.9962 41.1058Z" fill="url(#paint0_linear_121_199)"/>
<defs>
<linearGradient id="paint0_linear_121_199" x1="4.84918e-05" y1="25" x2="39.3646" y2="25" gradientUnits="userSpaceOnUse">
<stop stop-color="#00F2FE"/>
<stop offset="0.021" stop-color="#03EFFE"/>
<stop offset="0.293" stop-color="#24D2FE"/>
<stop offset="0.554" stop-color="#3CBDFE"/>
<stop offset="0.796" stop-color="#4AB0FE"/>
<stop offset="1" stop-color="#4FACFE"/>
</linearGradient>
</defs>
</svg>
