<svg width="50" height="50" viewBox="0 0 50 50" fill="none" xmlns="http://www.w3.org/2000/svg">
<g clip-path="url(#clip0_121_200)">
<path d="M25.9766 50H24.0234C20.7924 50 18.1641 47.3717 18.1641 44.1406V43.1568C18.1641 42.8982 18.0012 42.6636 17.7486 42.5594L17.7128 42.5446C17.4599 42.4397 17.1776 42.4896 16.9949 42.6727L16.2994 43.3685C15.1928 44.4752 13.7215 45.0844 12.1559 45.0844C10.5911 45.0844 9.11942 44.4752 8.01277 43.3685L6.63185 41.9872C5.52521 40.8806 4.91562 39.4093 4.91562 37.8441C4.91562 36.2789 5.52521 34.8076 6.63185 33.7009L7.32727 33.0051C7.51038 32.8224 7.56073 32.5405 7.45544 32.2872L7.44057 32.2514C7.33643 31.9988 7.10182 31.8359 6.84319 31.8359H5.85938C2.62833 31.8359 0 29.2076 0 25.9766V24.0234C0 20.7924 2.62833 18.1641 5.85938 18.1641H6.84319C7.10182 18.1641 7.33643 18.0012 7.44057 17.7486L7.45544 17.7132C7.56035 17.4599 7.51038 17.178 7.32727 16.9949L6.63147 16.2994C5.52483 15.1928 4.91562 13.7215 4.91562 12.1563C4.91562 10.5911 5.52483 9.11942 6.63185 8.01277L8.01277 6.63185C9.11942 5.52521 10.5907 4.91562 12.1559 4.91562C13.7211 4.91562 15.1928 5.52521 16.2994 6.63185L16.9949 7.32727C17.1776 7.51038 17.4595 7.56073 17.7132 7.45544L17.749 7.44057C18.0012 7.33643 18.1641 7.10182 18.1641 6.84319V5.85938C18.1641 2.62833 20.7928 0 24.0234 0H25.9766C29.2076 0 31.8359 2.62833 31.8359 5.85938V6.84319C31.8359 7.10182 31.9992 7.33643 32.2514 7.44057L32.2872 7.45544C32.5405 7.56073 32.8224 7.51038 33.0055 7.32727L33.7009 6.63147C34.8076 5.52483 36.2789 4.91562 37.8441 4.91562C39.4093 4.91562 40.8806 5.52483 41.9872 6.63147L43.3685 8.01277C44.4752 9.11942 45.0844 10.5907 45.0844 12.1559C45.0844 13.7211 44.4752 15.1924 43.3685 16.2991L42.6727 16.9949C42.49 17.1776 42.4397 17.4599 42.5446 17.7132L42.5594 17.7486C42.6636 18.0008 42.8982 18.1641 43.1568 18.1641H44.1406C47.3717 18.1641 50 20.7924 50 24.0234V25.9766C50 29.2072 47.3717 31.8359 44.1406 31.8359H43.1568C42.8982 31.8359 42.6636 31.9988 42.5594 32.251L42.5446 32.2868C42.4397 32.5401 42.4896 32.822 42.6727 33.0051C43.4357 33.7681 43.4357 35.0048 42.6727 35.7674C41.9098 36.5303 40.6734 36.5299 39.9105 35.7674C38.6055 34.4616 38.2233 32.5073 38.9374 30.7884L38.9492 30.7598C39.6591 29.0405 41.3109 27.9297 43.1568 27.9297H44.1406C45.2175 27.9297 46.0938 27.0535 46.0938 25.9766V24.0234C46.0938 22.9465 45.2175 22.0703 44.1406 22.0703H43.1568C41.3109 22.0703 39.6591 20.9595 38.9492 19.2402L38.9343 19.2043C38.2233 17.4923 38.6051 15.538 39.9105 14.2326L40.6059 13.5372C40.9752 13.1683 41.1781 12.6778 41.1781 12.1563C41.1781 11.6344 40.9752 11.1439 40.6063 10.775L39.225 9.39369C38.8561 9.02481 38.3656 8.82187 37.8441 8.82187C37.3222 8.82187 36.8317 9.02481 36.4628 9.39369L35.7674 10.0895C34.4616 11.3949 32.5077 11.7767 30.7884 11.0626L30.7598 11.0508C29.0405 10.3409 27.9297 8.68912 27.9297 6.84319V5.85938C27.9297 4.78249 27.0535 3.90625 25.9766 3.90625H24.0234C22.9465 3.90625 22.0703 4.78249 22.0703 5.85938V6.84319C22.0703 8.68912 20.9595 10.3409 19.2402 11.0508L19.2116 11.0626C17.4923 11.7767 15.538 11.3949 14.2326 10.0895L13.5372 9.39407C13.1683 9.02481 12.6778 8.82187 12.1559 8.82187C11.6344 8.82187 11.1439 9.02481 10.775 9.39407L9.39407 10.775C9.02481 11.1439 8.82187 11.6344 8.82187 12.1563C8.82187 12.6778 9.02481 13.1683 9.39407 13.5372L10.0895 14.2326C11.3949 15.538 11.7767 17.4923 11.0626 19.2116L11.0508 19.2402C10.3409 20.9595 8.68912 22.0703 6.84319 22.0703H5.85938C4.78249 22.0703 3.90625 22.9465 3.90625 24.0234V25.9766C3.90625 27.0535 4.78249 27.9297 5.85938 27.9297H6.84319C8.68912 27.9297 10.3409 29.0405 11.0508 30.7598L11.0626 30.7884C11.7767 32.5077 11.3949 34.462 10.0895 35.7674L9.39369 36.4628C9.02481 36.8317 8.82187 37.3222 8.82187 37.8437C8.82187 38.3656 9.02481 38.8561 9.39369 39.225L10.775 40.6063C11.1439 40.9752 11.6344 41.1781 12.1559 41.1781C12.6778 41.1781 13.1683 40.9752 13.5372 40.6063L14.2326 39.9105C15.5384 38.6051 17.4923 38.2233 19.2116 38.9374L19.2402 38.9492C20.9595 39.6591 22.0703 41.3109 22.0703 43.1568V44.1406C22.0703 45.2175 22.9465 46.0938 24.0234 46.0938H25.9766C27.0535 46.0938 27.9297 45.2175 27.9297 44.1406V43.1568C27.9297 41.3109 29.0405 39.6591 30.7598 38.9492L30.7884 38.9374C32.5077 38.2233 34.462 38.6051 35.7674 39.9105L36.4628 40.6059C36.8317 40.9752 37.3222 41.1781 37.8441 41.1781C38.3656 41.1781 38.8561 40.9752 39.225 40.6059C39.9876 39.8434 41.2247 39.8434 41.9872 40.6059C42.7498 41.3689 42.7498 42.6056 41.9872 43.3681C40.8806 44.4748 39.4093 45.0844 37.8441 45.0844C36.2789 45.0844 34.8072 44.4748 33.7006 43.3681L33.0051 42.6727C32.8224 42.4896 32.5405 42.4393 32.2868 42.5446L32.251 42.5594C31.9988 42.6636 31.8359 42.8982 31.8359 43.1568V44.1406C31.8359 47.3717 29.2076 50 25.9766 50V50ZM23.0412 33.778C24.4392 33.6849 25.7442 33.0051 26.622 31.913C26.6468 31.8821 26.6705 31.8504 26.6933 31.818L34.7969 20.3724C35.4202 19.492 35.2119 18.2728 34.3315 17.6495C33.4511 17.0261 32.2323 17.2348 31.609 18.1152L23.5477 29.501C23.2853 29.8031 22.9572 29.8687 22.7814 29.8805C22.599 29.8923 22.2466 29.8691 21.9383 29.5753C21.9284 29.5662 21.9185 29.557 21.9086 29.5479L16.7465 24.8329C15.95 24.1055 14.7148 24.1611 13.9874 24.9577C13.2599 25.7542 13.316 26.9897 14.1121 27.7172L19.2612 32.42C20.1935 33.2996 21.434 33.7891 22.7097 33.7891C22.8203 33.7891 22.9309 33.7852 23.0412 33.778V33.778Z" fill="url(#paint0_linear_121_200)"/>
</g>
<defs>
<linearGradient id="paint0_linear_121_200" x1="0" y1="25" x2="50" y2="25" gradientUnits="userSpaceOnUse">
<stop stop-color="#00F2FE"/>
<stop offset="0.0208" stop-color="#03EFFE"/>
<stop offset="0.2931" stop-color="#24D2FE"/>
<stop offset="0.5538" stop-color="#3CBDFE"/>
<stop offset="0.7956" stop-color="#4AB0FE"/>
<stop offset="1" stop-color="#4FACFE"/>
</linearGradient>
<clipPath id="clip0_121_200">
<rect width="50" height="50" rx="10" fill="white"/>
</clipPath>
</defs>
</svg>
