<svg width="50" height="50" viewBox="0 0 50 50" fill="none" xmlns="http://www.w3.org/2000/svg">
<path d="M42.1875 3.90625H39.6484V1.95312C39.6484 0.874414 38.774 0 37.6953 0C36.6166 0 35.7422 0.874414 35.7422 1.95312V3.90625H26.8555V1.95312C26.8555 0.874414 25.9811 0 24.9023 0C23.8236 0 22.9492 0.874414 22.9492 1.95312V3.90625H14.1602V1.95312C14.1602 0.874414 13.2857 0 12.207 0C11.1283 0 10.2539 0.874414 10.2539 1.95312V3.90625H7.8125C3.50469 3.90625 0 7.41094 0 11.7188V42.1875C0 46.4953 3.50469 50 7.8125 50H42.1875C46.4953 50 50 46.4953 50 42.1875C50 41.1088 49.1256 40.2344 48.0469 40.2344C46.9682 40.2344 46.0938 41.1088 46.0938 42.1875C46.0938 44.3414 44.3414 46.0938 42.1875 46.0938H34.7656V34.375H48.0469C49.1256 34.375 50 33.5006 50 32.4219V11.7188C50 7.41094 46.4953 3.90625 42.1875 3.90625ZM7.8125 7.8125H10.2539V9.76562C10.2539 10.8443 11.1283 11.7188 12.207 11.7188C13.2857 11.7188 14.1602 10.8443 14.1602 9.76562V7.8125H22.9492V9.76562C22.9492 10.8443 23.8236 11.7188 24.9023 11.7188C25.9811 11.7188 26.8555 10.8443 26.8555 9.76562V7.8125H35.7422V9.76562C35.7422 10.8443 36.6166 11.7188 37.6953 11.7188C38.774 11.7188 39.6484 10.8443 39.6484 9.76562V7.8125H42.1875C44.3414 7.8125 46.0938 9.56484 46.0938 11.7188V14.8438H3.90625V11.7188C3.90625 9.56484 5.65859 7.8125 7.8125 7.8125ZM3.90625 18.75H15.2344V30.4688H3.90625V18.75ZM19.1406 18.75H30.8594V30.4688H19.1406V18.75ZM3.90625 42.1875V34.375H15.2344V46.0938H7.8125C5.65859 46.0938 3.90625 44.3414 3.90625 42.1875ZM30.8594 46.0938H19.1406V34.375H30.8594V46.0938ZM34.7656 18.75H46.0938V30.4688H34.7656V18.75Z" fill="url(#paint0_linear_121_196)"/>
<defs>
<linearGradient id="paint0_linear_121_196" x1="0" y1="25" x2="50" y2="25" gradientUnits="userSpaceOnUse">
<stop stop-color="#00F2FE"/>
<stop offset="0.021" stop-color="#03EFFE"/>
<stop offset="0.293" stop-color="#24D2FE"/>
<stop offset="0.554" stop-color="#3CBDFE"/>
<stop offset="0.796" stop-color="#4AB0FE"/>
<stop offset="1" stop-color="#4FACFE"/>
</linearGradient>
</defs>
</svg>
