<svg width="50" height="50" viewBox="0 0 50 50" fill="none" xmlns="http://www.w3.org/2000/svg">
<g clip-path="url(#clip0_121_193)">
<path d="M36.478 49.9998C36.4414 49.9998 36.4051 49.9997 36.3684 49.9996C32.9207 49.9823 29.1642 49.1073 25.2032 47.3987C24.2127 46.9714 23.7561 45.8222 24.1834 44.8317C24.6105 43.8412 25.76 43.3845 26.7503 43.8119C30.1772 45.29 33.5099 46.079 36.3879 46.0933C36.4177 46.0935 36.4473 46.0935 36.477 46.0935C40.0776 46.0935 43.0837 44.9994 45.1782 42.9262L45.1921 42.9109C46.4661 41.4915 46.3885 39.342 45.0152 38.0178C39.7715 32.9613 37.2958 33.3272 35.0044 35.5617L31.3566 39.1823C30.7846 39.75 29.9223 39.9083 29.1862 39.5802C28.9798 39.4883 24.0662 37.2649 18.5294 31.7279L18.2722 31.4711C12.7346 25.9334 10.5111 21.0202 10.4192 20.8137C10.0914 20.0774 10.2495 19.2153 10.8173 18.6432L14.4378 14.9956C16.6721 12.7042 17.0383 10.2286 11.9817 4.98472C10.6573 3.61138 8.50799 3.53384 7.08836 4.80815L7.07342 4.82163C4.98328 6.93354 3.88826 9.97192 3.90633 13.6121C3.94139 20.6354 7.92674 28.7926 14.5669 35.4329C15.8329 36.6986 17.2787 37.9568 18.8641 39.1725C19.7202 39.8289 19.8821 41.0548 19.2257 41.9109C18.5693 42.7669 17.3433 42.9287 16.4874 42.2724C14.7665 40.9529 13.191 39.581 11.8048 38.1948C4.4534 30.8435 0.0404089 21.6611 0.000272225 13.6316C-0.0232629 8.90493 1.47967 4.89116 4.34676 2.02407C4.37156 1.99937 4.39695 1.97524 4.42293 1.9519L4.47898 1.90151C5.91922 0.60874 7.77625 -0.0648929 9.7115 0.00493128C11.6456 0.0746578 13.4504 0.880322 14.7936 2.27339C17.4239 5.00103 18.9422 7.28638 19.572 9.46538C20.4396 12.4682 19.6506 15.2493 17.2266 17.731C17.2229 17.7348 17.2192 17.7385 17.2155 17.7422L14.5944 20.383C15.5238 22.0315 17.5663 25.2411 21.0339 28.7085L21.2909 28.9654C24.758 32.4324 27.967 34.475 29.6173 35.4052L32.2579 32.7843C32.2616 32.7806 32.2653 32.7769 32.269 32.7733C34.7511 30.3493 37.5323 29.5602 40.5347 30.428C42.7138 31.0577 44.9992 32.576 47.7268 35.2062C49.1199 36.5495 49.9256 38.3543 49.9953 40.2884C50.0651 42.2224 49.3916 44.0806 48.0989 45.5208L48.0482 45.5771C48.0249 45.6032 48.0009 45.6285 47.9761 45.6533C45.131 48.4979 41.157 49.9998 36.478 49.9998Z" fill="url(#paint0_linear_121_193)"/>
</g>
<defs>
<linearGradient id="paint0_linear_121_193" x1="-2.0744e-05" y1="24.9997" x2="50.0003" y2="24.9997" gradientUnits="userSpaceOnUse">
<stop stop-color="#00F2FE"/>
<stop offset="0.021" stop-color="#03EFFE"/>
<stop offset="0.293" stop-color="#24D2FE"/>
<stop offset="0.554" stop-color="#3CBDFE"/>
<stop offset="0.796" stop-color="#4AB0FE"/>
<stop offset="1" stop-color="#4FACFE"/>
</linearGradient>
<clipPath id="clip0_121_193">
<rect width="50" height="50" rx="10" fill="white"/>
</clipPath>
</defs>
</svg>
