<svg width="160" height="66" viewBox="0 0 160 66" fill="none" xmlns="http://www.w3.org/2000/svg">
<path d="M53.29 23V40.88H57.25V44H49.69V23H53.29ZM63.2275 23V44H59.6275V23H63.2275ZM69.6187 39.11C69.6187 39.81 69.7787 40.33 70.0987 40.67C70.4187 41.01 70.7887 41.18 71.2087 41.18C71.6687 41.18 72.0987 40.96 72.4987 40.52C72.9187 40.06 73.1287 39.37 73.1287 38.45V35.09H71.2687V32.72H76.7287V44H74.2087V41.72H73.9687C73.6887 42.58 73.1987 43.23 72.4987 43.67C71.8187 44.09 71.0987 44.3 70.3387 44.3C69.8187 44.3 69.2987 44.2 68.7787 44C68.2587 43.78 67.7887 43.45 67.3687 43.01C66.9687 42.57 66.6387 42.01 66.3787 41.33C66.1387 40.63 66.0187 39.81 66.0187 38.87V28.13C66.0187 26.27 66.5087 24.9 67.4887 24.02C68.4687 23.14 69.7487 22.7 71.3287 22.7C72.1287 22.7 72.8587 22.81 73.5187 23.03C74.1787 23.25 74.7487 23.59 75.2287 24.05C75.7087 24.49 76.0787 25.05 76.3387 25.73C76.5987 26.41 76.7287 27.21 76.7287 28.13V31.49H73.1287V27.89C73.1287 27.11 72.9487 26.57 72.5887 26.27C72.2287 25.97 71.8287 25.82 71.3887 25.82C70.9287 25.82 70.5187 25.97 70.1587 26.27C69.7987 26.57 69.6187 27.11 69.6187 27.89V39.11ZM89.8218 23V44H86.2218V34.79H83.1318V44H79.5318V23H83.1318V31.67H86.2218V23H89.8218ZM102.263 26.12H99.0227V44H95.4227V26.12H92.1527V23H102.263V26.12ZM108.368 26.12V31.94H112.148V35.06H108.368V44H104.768V23H112.358V26.12H108.368ZM118.452 23V44H114.852V23H118.452ZM132.043 23V44H127.993L124.333 29.12H124.123L124.873 44H121.273V23H125.323L129.073 37.94H129.283L128.443 23H132.043ZM138.472 39.11C138.472 39.87 138.652 40.41 139.012 40.73C139.372 41.03 139.782 41.18 140.242 41.18C140.682 41.18 141.082 41.03 141.442 40.73C141.802 40.41 141.982 39.87 141.982 39.11V34.58H145.582V38.84C145.582 39.76 145.452 40.57 145.192 41.27C144.932 41.95 144.562 42.52 144.082 42.98C143.602 43.42 143.032 43.75 142.372 43.97C141.712 44.19 140.982 44.3 140.182 44.3C138.602 44.3 137.322 43.86 136.342 42.98C135.362 42.08 134.872 40.7 134.872 38.84V28.13C134.872 26.27 135.362 24.9 136.342 24.02C137.322 23.14 138.602 22.7 140.182 22.7C140.982 22.7 141.712 22.81 142.372 23.03C143.032 23.25 143.602 23.59 144.082 24.05C144.562 24.49 144.932 25.05 145.192 25.73C145.452 26.41 145.582 27.21 145.582 28.13V32.42H141.982V27.89C141.982 27.13 141.802 26.6 141.442 26.3C141.082 26 140.682 25.85 140.242 25.85C139.782 25.85 139.372 26 139.012 26.3C138.652 26.6 138.472 27.13 138.472 27.89V39.11ZM158.675 23V44H155.075V34.79H151.985V44H148.385V23H151.985V31.67H155.075V23H158.675Z" fill="white"/>
<path fill-rule="evenodd" clip-rule="evenodd" d="M32.0979 35.6076H8.76465L41.9998 3L25.9705 28.6376H39.3038L32.0979 35.6076Z" stroke="white" stroke-width="0.755906" stroke-miterlimit="22.9256"/>
<path fill-rule="evenodd" clip-rule="evenodd" d="M2 62.9998L16.1667 36.6797H30.9706L23.9853 43.5766H20.3824L18.3971 45.7455H21.6323L18.0049 49.5229H14.598L2 62.9998Z" stroke="white" stroke-width="0.755906" stroke-miterlimit="22.9256"/>
<path fill-rule="evenodd" clip-rule="evenodd" d="M13.7898 48.8894L5.23584 58.4427L19.0348 38.6782H26.1427L23.9368 40.8959H21.0447L16.1794 46.5255H19.7334L17.3314 48.8894H13.7898Z" stroke="white" stroke-width="0.755906" stroke-miterlimit="22.9256"/>
<path fill-rule="evenodd" clip-rule="evenodd" d="M15.4849 32.7338H31.4775L33.4138 30.9366H20.9383L34.8354 11.623L15.4849 32.7338Z" stroke="white" stroke-width="0.755906" stroke-miterlimit="22.9256"/>
<path fill-rule="evenodd" clip-rule="evenodd" d="M32.0979 35.6076L39.3038 28.6376H25.9705L41.9998 3L8.76465 35.6076H32.0979V35.6076ZM31.4773 32.7338H15.4846L34.8351 11.623L20.9381 30.9366H33.4136L31.4773 32.7338Z" fill="#F9FF3F" stroke="#F9FF3F" stroke-width="0.755906" stroke-miterlimit="22.9256"/>
<path fill-rule="evenodd" clip-rule="evenodd" d="M31.4775 32.7338L33.4138 30.9366H20.9383L34.8354 11.623L15.4849 32.7338H31.4775Z" fill="#F9FF3F" stroke="#F9FF3F" stroke-width="0.755906" stroke-miterlimit="22.9256"/>
<path fill-rule="evenodd" clip-rule="evenodd" d="M5.23579 58.4424L19.0348 38.678H26.1426L23.9367 40.8957H21.0446L16.1794 46.5253H19.7333L17.3313 48.8892H13.7897L5.23579 58.4424V58.4424ZM30.9706 36.6797H16.1667L2 62.9998L14.598 49.5229H18.0049L21.6323 45.7455H18.3971L20.3824 43.5766H23.9853L30.9706 36.6797V36.6797Z" fill="white"/>
</svg>
