<svg width="40" height="40" viewBox="0 0 40 40" fill="none" xmlns="http://www.w3.org/2000/svg">
<g clip-path="url(#clip0_93_1009)">
<path fill-rule="evenodd" clip-rule="evenodd" d="M32 19.9998C32 26.6268 26.627 31.9998 20 31.9998C13.373 31.9998 8 26.6268 8 19.9998C8 13.3728 13.373 7.99976 20 7.99976C26.627 7.99976 32 13.3728 32 19.9998ZM20.43 16.8588C19.263 17.3438 16.93 18.3488 13.432 19.8728C12.864 20.0988 12.566 20.3198 12.539 20.5358C12.493 20.9018 12.951 21.0458 13.573 21.2408C13.658 21.2678 13.746 21.2948 13.836 21.3248C14.449 21.5238 15.273 21.7568 15.701 21.7658C16.09 21.7738 16.524 21.6138 17.003 21.2858C20.271 19.0788 21.958 17.9638 22.064 17.9398C22.139 17.9228 22.243 17.9008 22.313 17.9638C22.383 18.0258 22.376 18.1438 22.369 18.1758C22.323 18.3688 20.529 20.0378 19.599 20.9018C19.309 21.1708 19.104 21.3618 19.062 21.4058C18.968 21.5028 18.872 21.5958 18.78 21.6848C18.21 22.2328 17.784 22.6448 18.804 23.3168C19.294 23.6398 19.686 23.9068 20.077 24.1728C20.504 24.4638 20.93 24.7538 21.482 25.1158C21.622 25.2078 21.756 25.3028 21.887 25.3958C22.384 25.7508 22.831 26.0688 23.383 26.0188C23.703 25.9888 24.035 25.6878 24.203 24.7888C24.6 22.6628 25.382 18.0588 25.563 16.1608C25.574 16.0032 25.5673 15.8448 25.543 15.6888C25.5284 15.5627 25.4671 15.4467 25.371 15.3638C25.228 15.2468 25.006 15.2218 24.906 15.2238C24.455 15.2318 23.763 15.4728 20.43 16.8588Z" fill="white"/>
</g>
<circle cx="20" cy="20" r="19.5" stroke="white"/>
<defs>
<clipPath id="clip0_93_1009">
<rect width="24" height="24" fill="white" transform="translate(8 7.99976)"/>
</clipPath>
</defs>
</svg>
