<svg width="40" height="40" viewBox="0 0 40 40" fill="none" xmlns="http://www.w3.org/2000/svg">
<path d="M31.6435 12.9369C30.8085 13.3069 29.9115 13.5569 28.9685 13.6699C29.9415 13.0877 30.6694 12.1714 31.0165 11.092C30.1024 11.6349 29.1018 12.0171 28.0585 12.2219C27.3569 11.4728 26.4276 10.9763 25.4148 10.8094C24.4021 10.6426 23.3626 10.8147 22.4577 11.2992C21.5529 11.7837 20.8333 12.5533 20.4106 13.4887C19.988 14.424 19.886 15.4727 20.1205 16.4719C18.2682 16.3789 16.4561 15.8975 14.8019 15.0589C13.1477 14.2202 11.6883 13.0431 10.5185 11.604C10.1185 12.2939 9.8885 13.0939 9.8885 13.9459C9.88805 14.7129 10.0769 15.4682 10.4384 16.1447C10.7998 16.8212 11.3227 17.398 11.9605 17.8239C11.2208 17.8004 10.4974 17.6005 9.8505 17.2409V17.3009C9.85042 18.3767 10.2225 19.4193 10.9037 20.2519C11.5848 21.0846 12.5331 21.6559 13.5875 21.8689C12.9013 22.0547 12.1818 22.082 11.4835 21.9489C11.781 22.8746 12.3605 23.684 13.1409 24.2639C13.9212 24.8438 14.8634 25.1651 15.8355 25.1829C14.1853 26.4784 12.1474 27.1811 10.0495 27.1779C9.67788 27.1781 9.30658 27.1563 8.9375 27.1129C11.067 28.4821 13.5458 29.2088 16.0775 29.2059C24.6475 29.2059 29.3325 22.1079 29.3325 15.9519C29.3325 15.7519 29.3275 15.5499 29.3185 15.3499C30.2298 14.6909 31.0164 13.8749 31.6415 12.9399L31.6435 12.9369Z" fill="white"/>
<circle cx="20" cy="20" r="19.5" stroke="white"/>
</svg>
