<svg width="40" height="40" viewBox="0 0 40 40" fill="none" xmlns="http://www.w3.org/2000/svg">
<g clip-path="url(#clip0_93_1010)">
<path d="M31.5006 14.5071C31.3647 14.0223 31.1 13.5834 30.7346 13.2371C30.3589 12.8801 29.8984 12.6247 29.3966 12.4951C27.5186 12.0001 19.9946 12.0001 19.9946 12.0001C16.858 11.9644 13.722 12.1214 10.6046 12.4701C10.1028 12.6093 9.64318 12.8704 9.26662 13.2301C8.89662 13.5861 8.62862 14.0251 8.48862 14.5061C8.15231 16.3178 7.98891 18.1574 8.00062 20.0001C7.98862 21.8411 8.15162 23.6801 8.48862 25.4941C8.62562 25.9731 8.89262 26.4101 9.26362 26.7631C9.63462 27.1161 10.0966 27.3711 10.6046 27.5061C12.5076 28.0001 19.9946 28.0001 19.9946 28.0001C23.1353 28.0358 26.2752 27.8788 29.3966 27.5301C29.8984 27.4004 30.3589 27.1451 30.7346 26.7881C31.0999 26.4418 31.3643 26.0028 31.4996 25.5181C31.8447 23.707 32.0125 21.8667 32.0006 20.0231C32.0266 18.1717 31.859 16.3226 31.5006 14.5061V14.5071ZM17.6026 23.4241V16.5771L23.8626 20.0011L17.6026 23.4241Z" fill="white"/>
</g>
<circle cx="20" cy="20" r="19.5" stroke="white"/>
<defs>
<clipPath id="clip0_93_1010">
<rect width="24" height="24" fill="white" transform="translate(8 7.99976)"/>
</clipPath>
</defs>
</svg>
