<svg width="70" height="70" viewBox="0 0 70 70" fill="none" xmlns="http://www.w3.org/2000/svg">
<g clip-path="url(#clip0_88_181)">
<path d="M32.1302 45.8362C31.6685 46.3571 30.3627 46.3706 30.3578 45.5218C30.3584 45.4183 33.8367 37.4596 33.8367 37.4596H29.8498C27.7353 37.4596 26.3997 35.2174 27.4285 33.383L32.8359 23.7949H40.8758L35.9565 31.8571H41.0646C42.7836 31.8571 43.688 33.8814 42.5679 35.1763L32.1302 45.8362ZM66.2511 66.2514C70.6339 61.8687 71.1754 54.4261 67.776 45.2947C66.5253 41.9351 64.7895 38.4677 62.6415 35C64.7895 31.5323 66.5253 28.0649 67.776 24.7053C74.9948 6.1089 63.889 -4.99432 45.2945 2.22377C33.3301 6.4855 19.0551 18.4249 10.7426 30.0013C6.83189 23.502 2.99335 11.9329 7.61351 7.61338C10.3609 4.86569 15.9103 4.77346 22.8383 7.361C24.252 7.88886 25.8266 7.17092 26.3546 5.75704C26.8827 4.34302 26.1645 2.76871 24.7508 2.24071C15.5975 -1.17778 8.13905 -0.642126 3.7486 3.74847C-0.634211 8.13114 -1.17574 15.5737 2.22362 24.7052C6.48495 36.6693 18.4257 50.9454 30.001 59.2572C27.5641 60.6365 25.149 61.7785 22.7981 62.6536C8.33883 68.0806 1.91644 61.4653 7.40922 47.0331C7.94201 45.621 7.2294 44.0441 5.81729 43.5113C4.40532 42.9784 2.82828 43.691 2.29549 45.1034C-5.05541 63.7741 6.00422 75.0304 24.7054 67.7758C36.6593 63.5257 50.9607 51.5538 59.2582 40.0002C60.6368 42.436 61.7789 44.8515 62.6537 47.2014C65.2255 54.1099 65.128 59.6445 62.3863 62.3863C59.6389 65.134 54.0895 65.2264 47.1615 62.6387C45.747 62.1105 44.1732 62.8288 43.6452 64.2426C43.1171 65.6567 43.8353 67.231 45.249 67.759C49.2278 69.245 52.8852 69.9836 56.1107 69.9836C60.3053 69.9837 63.769 68.7334 66.2511 66.2514V66.2514ZM23.5208 23.5208C27.2028 19.8388 31.0867 16.5874 34.9931 13.8889C38.957 16.6218 42.8142 19.8561 46.4788 23.5208C50.1634 27.2052 53.4161 31.0909 56.1154 34.9998C53.416 38.9088 50.1632 42.7944 46.4788 46.4788C42.7969 50.1609 38.913 53.4123 35.0065 56.1108C31.0427 53.3779 27.1854 50.1436 23.5208 46.4788C19.8387 42.7968 16.5874 38.913 13.8889 35.0065C16.6226 31.0421 19.8573 27.1842 23.5208 23.5208V23.5208ZM47.2016 7.3461C54.11 4.77428 59.6445 4.87184 62.3863 7.61338C65.1278 10.3551 65.2254 15.8897 62.6536 22.7982C61.7789 25.1482 60.6367 27.5637 59.258 29.9995C54.0942 22.9387 47.0793 15.9126 39.9986 10.7426C42.4356 9.36314 44.8507 8.22132 47.2016 7.3461V7.3461Z" fill="url(#paint0_linear_88_181)"/>
</g>
<defs>
<linearGradient id="paint0_linear_88_181" x1="-0.000170105" y1="35" x2="69.9998" y2="35" gradientUnits="userSpaceOnUse">
<stop stop-color="#00F2FE"/>
<stop offset="0.0208" stop-color="#03EFFE"/>
<stop offset="0.2931" stop-color="#24D2FE"/>
<stop offset="0.5538" stop-color="#3CBDFE"/>
<stop offset="0.7956" stop-color="#4AB0FE"/>
<stop offset="1" stop-color="#4FACFE"/>
</linearGradient>
<clipPath id="clip0_88_181">
<rect width="70" height="70" fill="white"/>
</clipPath>
</defs>
</svg>
