<svg width="70" height="70" viewBox="0 0 70 70" fill="none" xmlns="http://www.w3.org/2000/svg">
<g clip-path="url(#clip0_88_191)">
<path d="M31.4413 48.1396C30.9794 48.6608 29.6729 48.6743 29.668 47.825C29.6685 47.7215 33.4261 37.2977 33.4261 37.2977H27.9331C25.8176 37.2977 24.4813 35.0542 25.5106 33.2189L31.8112 21.9851H41.5163L36.5128 30.0516H42.8452C44.5651 30.0516 45.4699 32.0769 44.3492 33.3725L31.4413 48.1396ZM64.5312 67.2391C64.5312 65.7289 63.3071 64.5047 61.7969 64.5047C60.2891 64.5047 59.0625 63.278 59.0625 61.7703V53.5672C59.2004 49.9437 64.3947 49.9465 64.5312 53.5672V61.7703C64.6656 65.3944 69.8668 65.3917 70 61.7703V53.5672C69.5863 42.6968 54.0036 42.705 53.5938 53.5672V54.9344H39.7348C37.6864 51.3116 32.3122 51.3134 30.2652 54.9344H16.4062V53.5672C15.9925 42.6968 0.409883 42.705 0 53.5672V61.7703C0 66.2935 3.67992 69.9734 8.20312 69.9734C9.71332 69.9734 10.9375 68.7493 10.9375 67.2391C10.9375 65.7289 9.71332 64.5047 8.20312 64.5047C6.69539 64.5047 5.46875 63.278 5.46875 61.7703V53.5672C5.6067 49.9437 10.8009 49.9465 10.9375 53.5672V61.7703C11.0719 65.3944 16.2731 65.3917 16.4062 61.7703V60.4031H30.2652C32.3136 64.0259 37.6878 64.0241 39.7348 60.4031H53.5938V61.7703C53.5938 66.2935 57.2737 69.9734 61.7969 69.9734C63.3071 69.9734 64.5312 68.7491 64.5312 67.2391ZM64.5312 21.8484C64.5312 20.3382 63.3071 19.1141 61.7969 19.1141C60.2891 19.1141 59.0625 17.8874 59.0625 16.3797V8.17656C59.2004 4.5531 64.3947 4.55584 64.5312 8.17656V16.3797C64.6656 20.0038 69.8668 20.0011 70 16.3797V8.17656C69.5863 -2.69381 54.0036 -2.68561 53.5938 8.17656V9.40703H39.6528C37.5799 5.96568 32.4188 5.96732 30.3472 9.40703H16.4062V8.17656C15.9925 -2.69381 0.409883 -2.68561 0 8.17656V16.3797C0 20.9029 3.67992 24.5828 8.20312 24.5828C9.71332 24.5828 10.9375 23.3586 10.9375 21.8484C10.9375 20.3382 9.71332 19.1141 8.20312 19.1141C6.69539 19.1141 5.46875 17.8874 5.46875 16.3797V8.17656C5.6067 4.5531 10.8009 4.55584 10.9375 8.17656V16.3797C11.0719 20.0038 16.2731 20.0011 16.4062 16.3797V14.8758H30.1886C32.2064 18.68 37.7952 18.6781 39.8115 14.8758H53.5938V16.3797C53.5938 20.9029 57.2737 24.5828 61.7969 24.5828C63.3071 24.5828 64.5312 23.3585 64.5312 21.8484Z" fill="url(#paint0_linear_88_191)"/>
</g>
<defs>
<linearGradient id="paint0_linear_88_191" x1="0" y1="35.0001" x2="70" y2="35.0001" gradientUnits="userSpaceOnUse">
<stop stop-color="#00F2FE"/>
<stop offset="0.0208" stop-color="#03EFFE"/>
<stop offset="0.2931" stop-color="#24D2FE"/>
<stop offset="0.5538" stop-color="#3CBDFE"/>
<stop offset="0.7956" stop-color="#4AB0FE"/>
<stop offset="1" stop-color="#4FACFE"/>
</linearGradient>
<clipPath id="clip0_88_191">
<rect width="70" height="70" fill="white"/>
</clipPath>
</defs>
</svg>
