<svg width="70" height="70" viewBox="0 0 70 70" fill="none" xmlns="http://www.w3.org/2000/svg">
<g clip-path="url(#clip0_88_186)">
<path d="M36.3672 70H33.6328C29.1096 70 25.4297 66.3201 25.4297 61.7969V60.4196C25.4297 60.0574 25.2016 59.7291 24.8486 59.5833L24.7931 59.5603C24.4437 59.4154 24.049 59.4856 23.7928 59.7417L22.819 60.7154C19.6206 63.9138 14.4164 63.9138 11.218 60.7154L9.28457 58.782C6.10217 55.7285 6.10231 50.2343 9.28457 47.181L10.2581 46.2074C10.5145 45.951 10.5848 45.5563 10.4375 45.2017L10.4171 45.1525C10.271 44.7985 9.94273 44.5705 9.58043 44.5705H8.20312C3.67992 44.5705 0 40.8905 0 36.3673V33.633C0 29.1097 3.67992 25.4298 8.20312 25.4298H9.58043C9.9426 25.4298 10.2709 25.2018 10.4166 24.8488L10.4372 24.7989C10.5848 24.4438 10.5144 24.0491 10.2581 23.7929L9.28443 22.8193C6.0859 19.6208 6.0859 14.4167 9.28443 11.2182L11.218 9.28457C14.2715 6.10217 19.7657 6.10231 22.819 9.28457L23.7928 10.2583C24.049 10.5145 24.4438 10.5849 24.7985 10.4375L24.8478 10.417C25.2016 10.2709 25.4298 9.9426 25.4298 9.58043V8.20312C25.4298 3.67992 29.1097 0 33.633 0H36.3673C40.8905 0 44.5705 3.67992 44.5705 8.20312V9.58043C44.5705 9.9426 44.7985 10.2709 45.1515 10.4167L45.207 10.4397C45.5567 10.5848 45.9512 10.5144 46.2074 10.2581L47.1811 9.28443C50.2344 6.10203 55.7288 6.10217 58.7821 9.28443L60.7156 11.2179C63.914 14.4163 63.914 19.6205 60.7156 22.8189L59.7417 23.7926C59.4855 24.0488 59.4152 24.4435 59.5626 24.7982L59.583 24.8475C59.7291 25.2014 60.0574 25.4295 60.4196 25.4295H61.7969C66.3201 25.4295 70 29.1095 70 33.6327V36.367C70 40.8903 66.3201 44.5702 61.7969 44.5702H60.4197C60.0575 44.5702 59.7291 44.7982 59.5834 45.1512L59.5644 45.1972C59.4154 45.5562 59.4856 45.9509 59.7417 46.2071L60.7156 47.181C63.8978 50.2342 63.8977 55.7286 60.7156 58.7818L58.7821 60.7153C55.5837 63.9137 50.3795 63.9137 47.1811 60.7153L46.2074 59.7416C45.9512 59.4854 45.5565 59.4152 45.2017 59.5623L45.1523 59.5829C44.7985 59.729 44.5703 60.0573 44.5703 60.4194V61.7969C44.5703 66.3201 40.8904 70 36.3672 70V70ZM24.4162 54.015C25.2487 54.015 26.0907 54.1777 26.8959 54.5121L26.9366 54.529C29.343 55.5226 30.8984 57.8349 30.8984 60.4196V61.7969C30.8984 63.3046 32.1251 64.5312 33.6328 64.5312H36.3672C37.8749 64.5312 39.1016 63.3046 39.1016 61.7969V60.4196C39.1016 57.8349 40.657 55.5226 43.0642 54.5286L43.0988 54.5143C45.5111 53.5123 48.247 54.0474 50.0743 55.8748L51.048 56.8485C52.1142 57.9146 53.8489 57.9146 54.915 56.8485L56.8485 54.915C57.9093 53.8971 57.9093 52.0658 56.8485 51.048L55.8748 50.0742C54.0474 48.247 53.5125 45.5109 54.5121 43.1041L54.5289 43.0634C55.5226 40.657 57.8349 39.1016 60.4197 39.1016H61.7969C63.3046 39.1016 64.5312 37.8749 64.5312 36.3672V33.6328C64.5312 32.1251 63.3046 30.8984 61.7969 30.8984H60.4196C57.8349 30.8984 55.5226 29.343 54.5285 26.9358L54.512 26.8957C53.5124 24.4892 54.0472 21.7532 55.8748 19.9258L56.8486 18.9521C57.9146 17.886 57.9146 16.1513 56.8486 15.0851L54.9151 13.1517C53.8973 12.0909 52.0659 12.0909 51.0482 13.1517L50.0745 14.1254C48.247 15.9529 45.5109 16.4877 43.1043 15.488L43.0635 15.4711C40.657 14.4774 39.1016 12.1651 39.1016 9.58043V8.20312C39.1016 6.69539 37.8749 5.46875 36.3672 5.46875H33.6328C32.1251 5.46875 30.8984 6.69539 30.8984 8.20312V9.58043C30.8984 12.1651 29.343 14.4774 26.9358 15.4714L26.9012 15.4857C24.4888 16.4876 21.753 15.9525 19.9257 14.1252L18.9518 13.1514C17.9341 12.0906 16.1027 12.0907 15.0849 13.1514L13.1514 15.0849C12.0853 16.151 12.0853 17.8857 13.1514 18.952L14.1251 19.9255C15.9526 21.753 16.4875 24.4891 15.4878 26.896L15.471 26.9366C14.4774 29.343 12.1651 30.8984 9.58043 30.8984H8.20312C6.69539 30.8984 5.46875 32.1251 5.46875 33.6328V36.3672C5.46875 37.8749 6.69539 39.1016 8.20312 39.1016H9.58029C12.165 39.1016 14.4774 40.657 15.4714 43.0644L15.4896 43.1084C16.4873 45.5109 15.9525 48.247 14.125 50.0743L13.1514 51.0479C12.0904 52.0658 12.0906 53.897 13.1514 54.915L15.0849 56.8485C16.151 57.9146 17.8857 57.9146 18.9518 56.8485L19.9255 55.8748C21.1418 54.6587 22.7603 54.015 24.4162 54.015V54.015ZM44.2125 33.2623C45.3332 31.9668 44.4284 29.9414 42.7085 29.9414H36.3761L41.3796 21.875H31.6745L25.3739 33.1088C24.3446 34.9441 25.6808 37.1875 27.7964 37.1875H33.2894C33.2894 37.1875 29.5318 47.6113 29.5312 47.7148C29.5363 48.564 30.8425 48.5507 31.3046 48.0294L44.2125 33.2623Z" fill="url(#paint0_linear_88_186)"/>
</g>
<defs>
<linearGradient id="paint0_linear_88_186" x1="0" y1="35" x2="70" y2="35" gradientUnits="userSpaceOnUse">
<stop stop-color="#00F2FE"/>
<stop offset="0.0208" stop-color="#03EFFE"/>
<stop offset="0.2931" stop-color="#24D2FE"/>
<stop offset="0.5538" stop-color="#3CBDFE"/>
<stop offset="0.7956" stop-color="#4AB0FE"/>
<stop offset="1" stop-color="#4FACFE"/>
</linearGradient>
<clipPath id="clip0_88_186">
<rect width="70" height="70" fill="white"/>
</clipPath>
</defs>
</svg>
