<svg width="70" height="70" viewBox="0 0 70 70" fill="none" xmlns="http://www.w3.org/2000/svg">
<g clip-path="url(#clip0_88_196)">
<path d="M35.8187 70H34.1782C33.2404 70 32.3681 69.5194 31.867 68.7267C23.3978 55.3007 6.64168 45.1845 6.97361 28.0034C6.68105 12.9451 19.943 -0.303873 34.9987 0.00536215C50.0495 -0.305513 63.3171 12.9462 63.0235 27.9975C63.014 37.676 58.1991 44.7009 53.4906 50.297C52.5186 51.4525 50.7936 51.6011 49.6382 50.6288C48.4827 49.6567 48.3341 47.9318 49.3064 46.7764C53.586 41.69 57.5475 35.8948 57.5551 27.9981C56.38 -1.85059 13.6029 -1.82722 12.442 28.0038C12.3988 42.7905 27.1045 51.7384 34.9935 63.5587C36.4157 61.5024 37.9896 59.4756 39.7614 57.4165C40.7465 56.2719 42.4727 56.1424 43.6173 57.1274C44.7619 58.1124 44.8914 59.8387 43.9064 60.9833C41.6703 63.582 39.7808 66.1148 38.1299 68.7266C37.6289 69.5194 36.7565 70 35.8187 70V70ZM44.3474 29.027C45.468 27.7315 44.5633 25.7063 42.8435 25.7063H36.5116L41.5147 17.6405H31.8103L25.5102 28.8734C24.4811 30.7085 25.8172 32.9519 27.9325 32.9519H33.4251C33.4251 32.9519 29.6678 43.3749 29.6672 43.4784C29.6723 44.3275 30.9784 44.3143 31.4405 43.793L44.3474 29.027Z" fill="url(#paint0_linear_88_196)"/>
</g>
<defs>
<linearGradient id="paint0_linear_88_196" x1="6.96869" y1="35" x2="63.0281" y2="35" gradientUnits="userSpaceOnUse">
<stop stop-color="#00F2FE"/>
<stop offset="0.0208" stop-color="#03EFFE"/>
<stop offset="0.2931" stop-color="#24D2FE"/>
<stop offset="0.5538" stop-color="#3CBDFE"/>
<stop offset="0.7956" stop-color="#4AB0FE"/>
<stop offset="1" stop-color="#4FACFE"/>
</linearGradient>
<clipPath id="clip0_88_196">
<rect width="70" height="70" fill="white"/>
</clipPath>
</defs>
</svg>
